<svg xmlns="http://www.w3.org/2000/svg" viewBox="0 0 256 256" width="40" height="40"><rect width="256" height="256" fill="#001d26" rx="40"/><path fill="#31a8ff" d="M83.4 179h16.2v-32.4h30.1c19.1 0 30-10.3 30-26.6 0-16.1-10.9-25.7-29.2-25.7H83.4V179zm16.2-70.8h28.1c9.3 0 14.5 4.5 14.5 11.8 0 7.4-5.2 12.3-15.1 12.3H99.6v-24.1zM170.1 179.3c15.1 0 24.6-8.5 25.1-20.5h-14.7c-.5 5-3.8 8.4-10.3 8.4-6.9 0-11-5.1-11-14.5s4.1-14.7 11-14.7c6.1 0 9.8 3.5 10.3 8.4h14.7c-.5-12.1-10-20.5-25.1-20.5-16.2 0-27.1 11.2-27.1 26.8-.1 15.6 10.8 27 27.1 27z"/></svg>
